<?xml version="1.0" encoding="utf-8"?>
<!-- Generator: Adobe Illustrator 19.0.0, SVG Export Plug-In . SVG Version: 6.00 Build 0)  -->
<svg version="1.1" xmlns="http://www.w3.org/2000/svg" xmlns:xlink="http://www.w3.org/1999/xlink" x="0px" y="0px"
	 viewBox="0 0 595.3 841.9" style="enable-background:new 0 0 595.3 841.9;" xml:space="preserve">
<style type="text/css">
	.st0{fill:#878686;}
	.st1{display:none;fill:#9C9B9B;}
	.st2{fill:#EF772C;}
	.st3{stroke:#000000;stroke-miterlimit:10;}
	.st4{display:none;}
	.st5{display:inline;}
	.st6{fill:#9C9B9B;}
	.st7{display:inline;fill:none;stroke:#9C9B9B;stroke-width:7;stroke-linecap:round;stroke-miterlimit:10;}
	.st8{fill:#B2B1B1;}
</style>
<g id="Calque_1">
</g>
<g id="Calque_4">
	<path class="st0" d="M284,122.2c0,0-41.4-10.9-98.4,31.4s-43,75-48,83.8s-36.7,20.8-40.7,46.5s3.7,38,3.7,38s-33,34.7-25,100.7
		s70.7,159.3,98,180.7c27.3,21.3,106.9,28.7,106.9,28.7h23.1c0,0,82.4-7.3,109.7-28.7c27.3-21.3,90-114.7,98-180.7
		c8-66-25-100.7-25-100.7s7.7-12.3,3.7-38s-35.7-37.7-40.7-46.5s9-41.5-48-83.8s-98.1-31.4-98.1-31.4S295.8,118.7,284,122.2z"/>
	<path class="st1" d="M486.3,322c0,0,7.7-12.3,3.7-38s-35.7-37.7-40.7-46.5s9-41.5-48-83.8s-98.1-31.4-98.1-31.4s-7.5-3.5-19.2,0
		c0,0-41.4-10.9-98.4,31.4s-43,75-48,83.8s-36.7,20.8-40.7,46.5s3.7,38,3.7,38s126.7-21.3,194.9-19.3S462.3,312.7,486.3,322z"/>
</g>
<g id="visage">
	<path class="st2" d="M295.5,237.5c0,0,17.2,12.9,19.5,22.8c1.5,6.5-16.1,12-15,28.2c0,0,0.3,1.8-3.3,1.9h-2.3
		c-3.7-0.1-3.3-1.9-3.3-1.9c1.1-16.2-16.5-21.8-15-28.2C278.3,250.4,295.5,237.5,295.5,237.5z"/>
	<g>
		<path class="st3" d="M327,227.5c0,0,6.5-15,13.8-16.8c7.3-1.8,23.5-3.7,29.8,13.8c6.3,17.5-12.8,20.2-20.3,20
			S330.5,237.7,327,227.5z"/>
		<ellipse class="st2" cx="349.2" cy="226.5" rx="19.5" ry="17"/>
		<circle cx="347.2" cy="224" r="10"/>
	</g>
	<g>
		<path class="st3" d="M259.9,227.5c0,0-6.5-15-13.8-16.8c-7.3-1.8-23.5-3.7-29.8,13.8c-6.3,17.5,12.8,20.2,20.3,20
			S256.4,237.7,259.9,227.5z"/>
		<ellipse class="st2" cx="237.8" cy="226.5" rx="19.5" ry="17"/>
		<circle cx="239.8" cy="224" r="10"/>
	</g>
</g>
<g id="Calque_3">
	<path class="st2" d="M221.5,623.5c0,0,3,12.5,0,17s-11.5,35-26,37s-27.5,6-38,16s-21,6.5-23,23s0,19,0,19l10.5-13
		c0,0,3,10.6,10.5,3.5c7.5-7,15.5-18,25.5-22s37-4.5,37-4.5s0.2,15.5,4.8,14.5c4.7-1,16.2,2.5,16.2-4s8.5-16.5,8.5-16.5
		s10.5,2,13.5,11s16-6.5,16-8s10,6,10,13s4.8-6.5,0-13.5c-4.5-6.5-9-17.8-19-17.2s-12.3-1.7-14-7.8c-1.1-3.9,0-7,1.5-14s3-27,3-27
		S241,607,221.5,623.5z"/>
	<path class="st2" d="M363.3,623.5c0,0-3,12.5,0,17s11.5,35,26,37s27.5,6,38,16s21,6.5,23,23s0,19,0,19l-10.5-13
		c0,0-3,10.6-10.5,3.5c-7.5-7-15.5-18-25.5-22s-37-4.5-37-4.5s-0.2,15.5-4.8,14.5c-4.7-1-16.2,2.5-16.2-4s-8.5-16.5-8.5-16.5
		s-10.5,2-13.5,11s-16-6.5-16-8s-10,6-10,13s-4.8-6.5,0-13.5c4.5-6.5,9-17.8,19-17.2s12.3-1.7,14-7.8c1.1-3.9,0-7-1.5-14s-3-27-3-27
		S343.8,607,363.3,623.5z"/>
</g>
<g id="Calque_5" class="st4">
	<g class="st5">
		<g>
			<g>
				<path class="st6" d="M172.9,334.4c-4.4,4.5-4,13.2-3,18.8c1.6,9.5,5.8,18.4,10.5,26.6c3.2,5.6,6.9,10.9,10.1,16.5
					c2.9,5.2,5.6,10.5,8,16c9.3,21.4,14.4,45.1,12.6,68.5c-0.9,11.2-3.3,22.4-7.7,32.8c-4.4,10.5-10,20.5-14.1,31.3
					c-2.2,5.7-4.3,11.7-5,17.8c-0.2,1.3-0.5,3.2,0.1,4.5c1.7-1,3.5-2,5.2-3c-8.9-9-17.7-18.1-26.4-27.3c-15-15.8-30-31.8-43.7-48.8
					c-4.7-5.9-9.2-11.8-12.5-18.6c-5.2-10.3-9.1-21.4-11.9-32.6c-7-28-7.2-58.9,9.6-83.6c8.9-13,18.8-25.3,30.2-36.3
					c5.4-5.2,11.1-10.2,17.4-14.3c1.2-0.8,1.1-0.7-0.6,0.3c0.3-0.2,1.8-1.1,1.8-1.1c-1,0.2-2.3,1.3-3.2,1.8
					c-15.1,8.8-27.6,22.4-38.4,35.8c-10.5,12.9-20.1,26.4-24,42.8c-3.4,14.2-3.1,29.1-0.9,43.4c2,12.8,5.6,25.5,10.6,37.5
					c3.2,7.6,6.9,14.8,11.8,21.4c12.7,17.1,27.5,32.7,42.1,48.2c6.9,7.4,13.9,14.7,20.9,21.9c2.5,2.5,4.9,5.1,7.4,7.6
					c1.3,1.3,2.6,3,4.1,4.2c0.2,0.1,0.4,0.4,0.5,0.5c0.2,0.2,5.2-3,5.2-3c-0.4-1-0.3-2.3-0.2-3.4c0.3-4.7,1.8-9.3,3.3-13.7
					c3.3-9.9,7.7-19.4,12.3-28.8c5.2-10.5,8.9-21.3,10.5-32.8c3.3-23.1-0.5-46.9-8.7-68.6c-4.2-11.2-9.6-21.8-16.1-31.9
					c-6-9.3-11.6-19-14.5-29.7c-1.6-5.9-2.5-12.4-0.9-18.4c0.5-1.9,1.3-4.1,2.7-5.6C176.7,332.7,174.2,333,172.9,334.4L172.9,334.4z
					"/>
			</g>
		</g>
		<g>
			<g>
				<path class="st6" d="M155.7,339.4c-2.4,7.4-2.1,16.1-1,23.7c1.2,8.6,4,17,8,24.7c2.1,4.2,4.4,8.3,6.5,12.5
					c9.1,18.4,13.9,37.9,15,58.4c0.9,18.7-0.5,37.5-2.7,56.1c1.7-1,3.5-2,5.2-3c-14.7-9.8-28.4-21.7-40.6-34.4
					c-9.8-10.3-18.9-21.7-25.2-34.4c-6.5-13.1-8.9-27.5-8.2-42c0.9-21.3,9.1-41.4,21-58.9c-1,1.5-4.2,1.5-5.2,3
					c-18.9,27.5-28.5,64.5-14.9,96.4c5.6,13.1,14.3,24.7,23.9,35.2c8.6,9.5,18.1,18.2,28,26.2c5.2,4.2,10.4,8.3,16,11.9
					c0.2,0.1,5.2-2.7,5.2-3c3.3-28.3,5.4-58-1.5-85.9c-2.2-8.9-5.4-17.4-9.3-25.7c-5.4-11.4-12.1-22-14.9-34.5
					c-2.1-9.2-3-20.2,0-29.4c-0.1,0.4-2.2,1.2-2.6,1.5C157.8,338.1,155.8,338.8,155.7,339.4L155.7,339.4z"/>
			</g>
		</g>
		<g>
			<g>
				<path class="st6" d="M148.4,397.4c2.7,1.7,4.7,4.9,6.2,7.6c5.3,9.5,7.4,20.8,8.6,31.5c1.2,11.3,1.1,22.7,0.5,34
					c1.7-1,3.5-2,5.2-3c-5.5-5.7-10.5-12.1-15.2-18.5c-9.1-12.7-17.2-26.7-20.9-42c-2.1-8.6-2.6-17.5-0.5-26.1
					c-0.1,0.4-2.2,1.3-2.6,1.5c-0.4,0.3-2.5,1-2.6,1.5c-4,15.7,1,32.1,8,46.2c6.1,12.3,14.1,23.7,22.9,34.2c1.8,2.1,3.7,4.3,5.6,6.3
					c0,0,5.2-2.7,5.2-3c1-17.1,0.9-34.9-3.6-51.6c-1.8-6.8-4.5-14-9.3-19.3c-0.7-0.8-1.4-1.6-2.3-2.1c-0.2-0.1-2.3,1.3-2.6,1.5
					C150.7,396,148.6,397.5,148.4,397.4L148.4,397.4z"/>
			</g>
		</g>
	</g>
	<g class="st5">
		<g>
			<g>
				<path class="st6" d="M410.4,334.4c4.4,4.5,4,13.2,3,18.8c-1.6,9.5-5.8,18.4-10.5,26.6c-3.2,5.6-6.9,10.9-10.1,16.5
					c-2.9,5.2-5.6,10.5-8,16c-9.3,21.4-14.4,45.1-12.6,68.5c0.9,11.2,3.3,22.4,7.7,32.8c4.4,10.5,10,20.5,14.1,31.3
					c2.2,5.7,4.3,11.7,5,17.8c0.2,1.3,0.5,3.2-0.1,4.5c0.2-0.5,2.1-1.2,2.6-1.5c0.8-0.5,1.9-0.9,2.6-1.5c9-9.1,17.9-18.4,26.8-27.7
					c15.1-15.9,30.2-32,43.9-49.1c4.8-6,9.1-12,12.5-18.9c5.2-10.6,9.1-22,11.8-33.5c3.3-13.8,4.9-28.3,3.6-42.5
					c-0.7-7.2-2.1-14.4-4.5-21.3c-2.7-7.7-6.8-14.4-11.4-21c-8.8-12.5-18.7-24.4-29.9-34.8c-3.3-3.1-6.8-6.1-10.4-8.8
					c-1.8-1.4-3.7-3-5.7-4.1c-0.3-0.1-0.5-0.3-0.8-0.5c-0.2-0.1-2.3,1.3-2.6,1.5c-0.3,0.2-2.3,1.7-2.6,1.5c4,2.3,7.7,5.4,11.2,8.4
					c10.1,8.6,19.2,18.5,27.4,28.9c5.5,7,11,14.2,15.2,22c3.4,6.5,5.8,13.4,7.3,20.6c2.9,14.2,2.4,28.9,0,43.1
					c-3.4,20.1-10.2,41-22.5,57.5c-12.8,17-27.6,32.6-42.2,48.2c-10.5,11.2-21.3,21.9-31.8,33.1c-0.2,0.2-0.4,0.4-0.5,0.5
					c1.7-1,3.5-2,5.2-3c0.4-1,0.3-2.3,0.2-3.4c-0.3-4.7-1.8-9.3-3.3-13.7c-3.3-9.9-7.7-19.4-12.3-28.8c-5.2-10.5-8.9-21.3-10.5-32.8
					c-3.3-23.1,0.5-46.9,8.7-68.6c4.2-11.2,9.6-21.8,16.1-31.9c6-9.3,11.6-19,14.5-29.7c1.6-5.9,2.5-12.4,0.9-18.4
					c-0.5-1.9-1.3-4.1-2.7-5.6C415.2,331,410.7,334.7,410.4,334.4L410.4,334.4z"/>
			</g>
		</g>
		<g>
			<g>
				<path class="st6" d="M427.6,339.4c2.4,7.4,2.1,16.1,1,23.7c-1.2,8.6-4,17-8,24.7c-2.1,4.2-4.4,8.3-6.5,12.5
					c-9.1,18.4-13.9,37.9-15,58.4c-0.9,18.7,0.5,37.5,2.7,56.1c0-0.4,4.6-2.6,5.1-2.9c14.6-9.7,28.1-21.4,40.2-34.1
					c9.9-10.3,19.1-21.8,25.5-34.6c6.6-13.1,9-27.7,8.4-42.3c-0.9-21.3-9.1-41.4-21-58.9c-0.1-0.2-5.1,3.1-5.2,3
					c18.8,27.4,28.4,64,15.1,95.8c-5.5,13.2-14.3,25-23.9,35.6c-8.6,9.5-18.1,18.2-28.1,26.3c-5.2,4.2-10.5,8.3-16.1,12
					c1.7-1,3.4-2,5.1-2.9c-3.3-28.3-5.4-58,1.5-85.9c2.2-8.9,5.4-17.4,9.3-25.7c5.4-11.4,12.1-22,14.9-34.5c2.1-9.2,3-20.2,0-29.4
					C432.9,336.7,427.5,338.9,427.6,339.4L427.6,339.4z"/>
			</g>
		</g>
		<g>
			<g>
				<path class="st6" d="M435,397.4c-2.7,1.6-4.6,4.8-6.1,7.4c-5.5,9.5-7.6,20.9-8.7,31.7c-1.2,11.3-1.1,22.7-0.5,34
					c0-0.6,4.6-2.4,5.2-3c5.5-5.7,10.5-12.1,15.2-18.5c9.1-12.7,17.2-26.7,20.9-42c2.1-8.6,2.6-17.5,0.5-26.1c0.1,0.5-5.3,2.4-5.2,3
					c4,15.7-1,32.1-8,46.2c-6.1,12.3-14.1,23.7-22.9,34.2c-1.8,2.1-3.7,4.3-5.6,6.3c1.7-1,3.5-2,5.2-3c-1-17-0.9-34.6,3.5-51.2
					c1.8-6.9,4.5-14.3,9.3-19.7c0.6-0.7,1.6-1.7,2.3-2.1C438.8,395.2,436.6,396.4,435,397.4L435,397.4z"/>
			</g>
		</g>
	</g>
	<g class="st5">
		<g>
			<path class="st6" d="M376.2,365.6c-4.8,5.9-9.8,12.1-15.6,17.1c-0.7,0.6-1.5,1.1-2.1,1.7c0.7-0.4,1.4-0.8,2.2-1.2
				c2.2-1.2,2.9-1.6,2-1.2c-0.1,0-0.3,0.2-0.4,0.2c-0.2,0-0.4,0.1-0.6,0c-1.1-0.2-1.8-1.8-2.2-2.7c-2-4-3.2-8.6-4.3-13
				c-0.9-3.3-1.6-6.6-2.3-9.9c0.1,0.7-5.1,2.1-5.2,3c-1.1,8.9-3.1,17.9-6.4,26.2c-1.1,2.9-2.4,5.7-4,8.3c-0.7,1-1.4,2-2.2,2.9
				c-0.4,0.5-0.9,0.9-1.3,1.4c-0.9,0.8-3.7,2.5,0.4,0.1c2.8-1.6,2-0.5,1.9-2c0-0.7-0.3-1.5-0.4-2.2c-0.5-2.5-1.2-4.9-2.1-7.3
				c-2.9-7.7-7.6-14.7-14.7-19.1c-0.3-0.2-5,2.6-5.2,3c-2.3,4.1-4.4,8.3-6.4,12.5c-1.5,3.2-2.9,6.5-3.9,9.9c-0.7,2.4-1.6,5.2-1,7.7
				c1.7-1,3.5-2,5.2-3c-5.9-11.9-11.7-23.9-17.9-35.7c-1-1.8-1.8-4.2-3.2-5.7c-0.3-0.4-4.9,3.3-5.2,3c1.1,1.3,1.9,3.2,2.6,4.6
				c1.7,3.3,3.4,6.6,5.1,9.9c3.7,7.3,7.3,14.6,10.9,21.9c0.8,1.7,1.6,3.3,2.4,5c-0.1-0.2,5.3-2.6,5.2-3c-0.6-2.4,0.2-5.1,0.9-7.4
				c1.1-3.5,2.5-6.8,4-10.1c2-4.3,4.1-8.5,6.4-12.5c-1.7,1-3.5,2-5.2,3c9.9,6.1,16,18,17.3,29.4c0,0,0.1,0,0.1,0
				c4.2-2.3,8-4.4,10.8-8.4c3-4.3,4.9-9.4,6.4-14.4c2.1-6.8,3.6-13.8,4.5-20.8c-1.7,1-3.5,2-5.2,3c0.7,3.2,1.4,6.3,2.2,9.4
				c1.2,4.7,2.4,9.8,4.7,14.1c0.6,1,1.2,2.2,2.5,2.1c0.6-0.1,1.2-0.6,1.7-0.8c1.5-0.8,3-1.7,4.4-2.6c3.9-2.5,7.1-6.3,10.2-9.7
				c2.8-3.1,5.4-6.2,8-9.4C380.3,364,377.4,364.1,376.2,365.6L376.2,365.6z"/>
		</g>
	</g>
	<g class="st5">
		<g>
			<path class="st6" d="M319.4,428.4c-1.6,2.9-3.4,5.7-5.2,8.5c-1.5,2.2-3,4.3-4.7,6.3c-0.8,0.9-1.6,1.8-2.4,2.6
				c-0.4,0.4-0.9,0.8-1.3,1.1c-2.3,1.9,3.1-3,3.3-1.9c-0.2-1-1.1-2.2-1.6-3.1c-1-1.9-1.9-3.9-2.9-5.8c-1.4-2.9-2.9-5.7-4.3-8.6
				c0,0.1-4.8,2.6-5.2,3c-6.4,7-10.8,16.5-12.1,25.9c1.7-1,3.5-2,5.2-3c-4.5-3.9-8.5-8.5-12-13.3c-6.6-9.1-11.6-19.8-11.4-31.2
				c0,0.2-2.3,1.3-2.6,1.5c-0.7,0.4-2.2,0.9-2.6,1.5c-3.5,5.5-6.5,11.4-9,17.4c-3.5,8.2-8,19.4-4.3,28.3c1.7-1,3.5-2,5.2-3
				c-6.1-4.2-11.7-9.2-16.9-14.5c-7.6-7.8-16.2-18.6-14.9-30.2c0,0.3-2.3,1.3-2.6,1.5c-0.4,0.2-2.5,1.1-2.6,1.5
				c-1.3,11.6,7.3,22.3,14.9,30.2c5.1,5.3,10.8,10.3,16.9,14.5c0.3,0.2,5.2-3.1,5.2-3c-3.7-8.9,0.8-20.1,4.3-28.3
				c2.6-6,5.5-11.9,9-17.4c-1.7,1-3.5,2-5.2,3c-0.2,11.4,4.8,22.1,11.4,31.2c3.5,4.8,7.5,9.4,12,13.3c0.1,0.1,5.2-2.7,5.2-3
				c1.2-9.4,5.6-18.9,12.1-25.9c-1.7,1-3.5,2-5.2,3c2.8,5.5,5.2,11.4,8.4,16.7c0.6,1,0.4,0.9,1.6,0.3c2-1,4-2.1,5.8-3.4
				c3.6-2.6,6.2-6.5,8.6-10.1c1.9-2.8,3.6-5.6,5.2-8.5c-0.3,0.5-2.1,1.2-2.6,1.5C321.4,427.2,319.8,427.7,319.4,428.4L319.4,428.4z"
				/>
		</g>
	</g>
	<g class="st5">
		<g>
			<path class="st6" d="M360.6,432.9c0.6,5.4,0,11-1,16.3c-2.2,12-7.7,23.1-16.1,31.9c1.7-1,3.5-2,5.2-3c-4.9-9-9.9-18.1-14.8-27.1
				c0.1,0.2-5.2,2.5-5.2,3c-0.2,6.9-1,13.8-2.2,20.6c-1.7,9.5-4.1,21.9-12.2,28.1c1.7-1,3.5-2,5.2-3c-6.6-7.5-13.2-15.1-19.8-22.6
				c0,0-5.2,2.7-5.2,3c0,2.4-0.3,4.9-0.7,7.2c-0.4,1.9-0.8,3.9-1.6,5.7c-0.4,0.9-0.8,1.7-1.3,2.5c-1.2,1.8-4.1,3.2,1.8-0.1
				c0.3-0.1,0.5-0.3,0.8-0.4c-0.9,0.4-0.9,0.5-1.5,0.1c-0.5-0.4-0.9-1.2-1.3-1.7c-1.6-2.1-3.2-4.2-4.8-6.2c-2.5-3.2-4.9-6.3-7.4-9.5
				c-0.2-0.2-5.1,3.2-5.2,3c4,5.1,7.9,10.2,11.9,15.3c0.4,0.5,1.2,2.1,1.9,2.4c0.9,0.4,3.5-1.6,4.2-2c1.9-1.1,3.6-2,4.9-3.8
				c1.2-1.7,1.9-3.8,2.4-5.8c0.8-3.1,1.2-6.4,1.2-9.6c-1.7,1-3.5,2-5.2,3c6.6,7.5,13.2,15.1,19.8,22.6c0.1,0.2,4.8-2.7,5.2-3
				c8.1-6.3,10.5-18.7,12.2-28.1c1.2-6.8,2-13.7,2.2-20.6c-1.7,1-3.5,2-5.2,3c4.9,9,9.9,18.1,14.8,27.1c0,0,4.8-2.6,5.2-3
				c8.4-8.8,13.8-20,16.1-31.9c1-5.3,1.6-10.9,1-16.3C365.9,430.7,360.6,432,360.6,432.9L360.6,432.9z"/>
		</g>
	</g>
	<path class="st7" d="M262.4,270c0,0-5.9,10.9-21.4,7.9c-15.5-3-23.7-11.5-23.7-11.5s-11.5-3-18.5,2.6c0,0-0.3-19.1,10.2-15.2
		c0,0-13.8-26-0.7-46.1s31.6-18.5,37.2-18.1c5.6,0.3,33.3,4.3,39.2,32"/>
	<path class="st7" d="M326.7,270c0,0,5.9,10.9,21.4,7.9c15.5-3,23.7-11.5,23.7-11.5s11.5-3,18.5,2.6c0,0,0.3-19.1-10.2-15.2
		c0,0,13.8-26,0.7-46.1s-31.6-18.5-37.2-18.1c-5.6,0.3-33.3,4.3-39.2,32"/>
	<path class="st7" d="M294.7,208.6c0,0-2-24.4-33.3-33.6c-31.3-9.2-22.1,5.9-57-8.6c0,0,0,12.2-10.9,33.3s-5.9,41.9-1,46.1"/>
	<path class="st7" d="M297.8,208.6c0,0,2-24.4,33.3-33.6c31.3-9.2,22.1,5.9,57-8.6c0,0,0,12.2,10.9,33.3c10.9,21.1,5.9,41.9,1,46.1"
		/>
</g>
<g id="Calque_6">
	<g>
		<path class="st6" d="M175.5,314c0,0-0.2,0.1-0.7,0.2c-3.1,1.2-16.6,7.5-14.3,32.3c0,0,4-20.8,21-22
			C181.5,324.5,184,316.3,175.5,314z"/>
		<path class="st6" d="M171.5,356c0,0-0.2,0.1-0.7,0.2c-3.1,1.2-16.6,7.5-14.3,32.3c0,0,4-20.8,21-22
			C177.5,366.5,180,358.3,171.5,356z"/>
		<path class="st6" d="M206.1,330.2c0,0-0.2,0.1-0.7,0.2c-3.1,1.2-16.6,7.5-14.3,32.3c0,0,4-20.8,21-22
			C212.1,340.8,214.6,332.6,206.1,330.2z"/>
		<path class="st6" d="M206.1,388.5c0,0-0.2,0.1-0.7,0.2c-3.1,1.2-16.6,7.5-14.3,32.3c0,0,4-20.8,21-22
			C212.1,399,214.6,390.8,206.1,388.5z"/>
		<path class="st6" d="M241.9,395.7c0,0-0.2,0.1-0.7,0.2c-3.1,1.2-16.6,7.5-14.3,32.3c0,0,4-20.8,21-22
			C247.9,406.2,250.4,398.1,241.9,395.7z"/>
		<path class="st6" d="M226.6,339.8c0,0-0.2,0.1-0.7,0.2c-3.1,1.2-16.6,7.5-14.3,32.3c0,0,4-20.8,21-22
			C232.6,350.2,235.1,342.1,226.6,339.8z"/>
		<path class="st6" d="M182.3,421c0,0-0.2,0.1-0.7,0.2c-3.1,1.2-16.6,7.5-14.3,32.3c0,0,4-20.8,21-22
			C188.3,431.5,190.8,423.3,182.3,421z"/>
		<path class="st6" d="M149.9,437.2c0,0-0.2,0.1-0.7,0.2c-3.1,1.2-16.6,7.5-14.3,32.3c0,0,4-20.8,21-22
			C155.9,447.8,158.4,439.6,149.9,437.2z"/>
		<path class="st6" d="M127.3,427.2c0,0-0.2,0.1-0.7,0.2c-3.1,1.2-16.6,7.5-14.3,32.3c0,0,4-20.8,21-22
			C133.3,437.8,135.8,429.6,127.3,427.2z"/>
		<path class="st6" d="M164.7,402c0,0-0.2,0.1-0.7,0.2c-3.1,1.2-16.6,7.5-14.3,32.3c0,0,4-20.8,21-22
			C170.7,412.5,173.2,404.3,164.7,402z"/>
		<path class="st6" d="M138.1,385.7c0,0-0.2,0.1-0.7,0.2c-3.1,1.2-16.6,7.5-14.3,32.3c0,0,4-20.8,21-22
			C144.1,396.2,146.6,388.1,138.1,385.7z"/>
		<path class="st6" d="M147.4,346.5c0,0-0.2,0.1-0.7,0.2c-3.1,1.2-16.6,7.5-14.3,32.3c0,0,4-20.8,21-22
			C153.4,357,155.9,348.8,147.4,346.5z"/>
		<path class="st6" d="M117.5,320c0,0-0.2,0.1-0.7,0.2c-3.1,1.2-16.6,7.5-14.3,32.3c0,0,4-20.8,21-22
			C123.5,330.5,126,322.4,117.5,320z"/>
		<path class="st6" d="M101.8,395.7c0,0-0.2,0.1-0.7,0.2c-3.1,1.2-16.6,7.5-14.3,32.3c0,0,4-20.8,21-22
			C107.8,406.2,110.3,398.1,101.8,395.7z"/>
		<path class="st6" d="M103.5,427.2c0,0-0.2,0.1-0.7,0.2c-3.1,1.2-16.6,7.5-14.3,32.3c0,0,4-20.8,21-22
			C109.5,437.8,112,429.6,103.5,427.2z"/>
		<path class="st6" d="M123.4,356c0,0-0.2,0.1-0.7,0.2c-3.1,1.2-16.6,7.5-14.3,32.3c0,0,4-20.8,21-22
			C129.4,366.5,131.9,358.3,123.4,356z"/>
		<path class="st6" d="M144.2,320c0,0-0.2,0.1-0.7,0.2c-3.1,1.2-16.6,7.5-14.3,32.3c0,0,4-20.8,21-22
			C150.2,330.5,152.7,322.4,144.2,320z"/>
		<path class="st6" d="M101.8,356c0,0-0.2,0.1-0.7,0.2c-3.1,1.2-16.6,7.5-14.3,32.3c0,0,4-20.8,21-22
			C107.8,366.5,110.3,358.3,101.8,356z"/>
		<path class="st6" d="M193.5,360.8c0,0-0.2,0.1-0.6,0.3c-2.8,1.8-14.6,10.9-7.1,34.6c0,0-0.6-21.2,15.8-26
			C201.6,369.7,202.3,361.2,193.5,360.8z"/>
		<path class="st6" d="M213,418.2c0,0-0.2,0.1-0.6,0.3c-3,1.5-15.5,9.5-10.2,33.8c0,0,1.4-21.2,18.1-24.4
			C220.3,427.9,221.8,419.5,213,418.2z"/>
		<path class="st6" d="M214.8,459.8c0,0-0.2,0.1-0.6,0.3c-3,1.5-15.5,9.5-10.2,33.8c0,0,1.4-21.2,18.1-24.4
			C222.1,469.4,223.5,461,214.8,459.8z"/>
		<path class="st6" d="M193.2,465c0,0-0.2,0.1-0.6,0.3c-3,1.5-15.5,9.5-10.2,33.8c0,0,1.4-21.2,18.1-24.4
			C200.5,474.6,201.9,466.2,193.2,465z"/>
		<path class="st6" d="M162.6,465c0,0-0.2,0.1-0.6,0.3c-3,1.5-15.5,9.5-10.2,33.8c0,0,1.4-21.2,18.1-24.4
			C169.9,474.6,171.4,466.2,162.6,465z"/>
		<path class="st6" d="M151.9,491c0,0-0.2,0.1-0.6,0.3c-3,1.5-15.5,9.5-10.2,33.8c0,0,1.4-21.2,18.1-24.4
			C159.1,500.6,160.6,492.2,151.9,491z"/>
		<path class="st6" d="M125.2,476.9c0,0-0.2,0.1-0.6,0.3c-3,1.5-15.5,9.5-10.2,33.8c0,0,1.4-21.2,18.1-24.4
			C132.5,486.6,133.9,478.2,125.2,476.9z"/>
		<path class="st6" d="M261.7,450.9c0,0-0.2,0.2-0.5,0.5c-2.3,2.5-11.3,14.2,1.9,35.3c0,0-5.9-20.4,8.7-29.1
			C271.8,457.5,270.3,449.1,261.7,450.9z"/>
		<path class="st6" d="M249.8,490.3c0,0-0.2,0.2-0.5,0.5c-2.3,2.5-11.3,14.2,1.9,35.3c0,0-5.9-20.4,8.7-29.1
			C259.9,496.9,258.4,488.5,249.8,490.3z"/>
		<path class="st6" d="M230.9,464.3c0,0-0.2,0.2-0.5,0.5c-2.3,2.5-11.3,14.2,1.9,35.3c0,0-5.9-20.4,8.7-29.1
			C241,470.9,239.6,462.5,230.9,464.3z"/>
		<path class="st6" d="M216,493.3c0,0-0.2,0.2-0.5,0.5c-2.3,2.5-11.3,14.2,1.9,35.3c0,0-5.9-20.4,8.7-29.1
			C226.1,499.9,224.7,491.5,216,493.3z"/>
		<path class="st6" d="M198.3,525.3c0,0-0.2,0.2-0.5,0.5c-2.3,2.5-11.3,14.2,1.9,35.3c0,0-5.9-20.4,8.7-29.1
			C208.4,531.9,207,523.5,198.3,525.3z"/>
		<path class="st6" d="M223.1,543.3c0,0-0.2,0.2-0.5,0.5c-2.3,2.5-11.3,14.2,1.9,35.3c0,0-5.9-20.4,8.7-29.1
			C233.2,550,231.7,541.5,223.1,543.3z"/>
		<path class="st6" d="M265.5,552c0,0-0.2,0.2-0.5,0.5c-2.3,2.5-11.3,14.2,1.9,35.3c0,0-5.9-20.4,8.7-29.1
			C275.7,558.6,274.2,550.2,265.5,552z"/>
		<path class="st6" d="M249.8,534c0,0-0.2,0.2-0.5,0.5c-2.3,2.5-11.3,14.2,1.9,35.3c0,0-5.9-20.4,8.7-29.1
			C259.9,540.6,258.4,532.2,249.8,534z"/>
		<path class="st6" d="M233,567c0,0-0.1,0.2-0.3,0.6c-1.2,3.1-5.3,17.4,14.8,32.1c0,0-13-16.8-2.7-30.3
			C244.8,569.4,240.3,562.1,233,567z"/>
		<path class="st6" d="M220.1,594.8c0,0-0.1,0.2-0.3,0.6c-1.2,3.1-5.3,17.4,14.8,32.1c0,0-13-16.8-2.7-30.3
			C232,597.2,227.5,589.9,220.1,594.8z"/>
		<path class="st6" d="M256.4,594.8c0,0-0.1,0.2-0.3,0.6c-1.2,3.1-5.3,17.4,14.8,32.1c0,0-13-16.8-2.7-30.3
			C268.3,597.2,263.8,589.9,256.4,594.8z"/>
		<path class="st6" d="M277.6,594.8c0,0-0.1,0.2-0.3,0.6c-1.2,3.1-5.3,17.4,14.8,32.1c0,0-13-16.8-2.7-30.3
			C289.5,597.2,285,589.9,277.6,594.8z"/>
		<path class="st6" d="M265.5,501.5c0,0-0.2,0.2-0.5,0.5c-2.3,2.5-11.3,14.2,1.9,35.3c0,0-5.9-20.4,8.7-29.1
			C275.7,508.1,274.2,499.7,265.5,501.5z"/>
		<path class="st6" d="M227.5,511.3c0,0-0.2,0.2-0.5,0.5c-2.3,2.5-11.3,14.2,1.9,35.3c0,0-5.9-20.4,8.7-29.1
			C237.6,517.9,236.1,509.5,227.5,511.3z"/>
		<path class="st6" d="M167.7,511.3c0,0-0.2,0.2-0.5,0.5c-2.3,2.5-11.3,14.2,1.9,35.3c0,0-5.9-20.4,8.7-29.1
			C177.9,517.9,176.4,509.5,167.7,511.3z"/>
		<path class="st6" d="M148.3,540.5c0,0-0.2,0.2-0.5,0.5c-2.3,2.5-11.3,14.2,1.9,35.3c0,0-5.9-20.4,8.7-29.1
			C158.4,547.2,156.9,538.8,148.3,540.5z"/>
		<path class="st6" d="M175.6,555.2c0,0-0.2,0.2-0.5,0.5c-2.3,2.5-11.3,14.2,1.9,35.3c0,0-5.9-20.4,8.7-29.1
			C185.7,561.8,184.2,553.4,175.6,555.2z"/>
		<path class="st6" d="M206.2,581.8c0,0-0.2,0.2-0.5,0.5c-2.3,2.5-11.3,14.2,1.9,35.3c0,0-5.9-20.4,8.7-29.1
			C216.3,588.4,214.8,580,206.2,581.8z"/>
		<path class="st6" d="M261.7,400.5c0,0-0.2,0.2-0.5,0.5c-2.3,2.5-11.3,14.2,1.9,35.3c0,0-5.9-20.4,8.7-29.1
			C271.8,407.1,270.3,398.7,261.7,400.5z"/>
		<path class="st6" d="M273.4,352.8c0,0-0.2,0.2-0.5,0.5c-2.3,2.5-11.3,14.2,1.9,35.3c0,0-5.9-20.4,8.7-29.1
			C283.5,359.4,282,351,273.4,352.8z"/>
		<path class="st6" d="M241.9,360.5c0,0-0.2,0.2-0.5,0.5c-2.3,2.5-11.3,14.2,1.9,35.3c0,0-5.9-20.4,8.7-29.1
			C252.1,367.1,250.6,358.7,241.9,360.5z"/>
	</g>
	<g>
		<path class="st6" d="M411.2,314c0,0,0.2,0.1,0.7,0.2c3.1,1.2,16.6,7.5,14.3,32.3c0,0-4-20.8-21-22
			C405.2,324.5,402.7,316.3,411.2,314z"/>
		<path class="st6" d="M464.1,267.5c0,0,0.2,0.1,0.7,0.2c3.1,1.2,16.6,7.5,14.3,32.3c0,0-4-20.8-21-22
			C458.1,278,455.6,269.8,464.1,267.5z"/>
		<path class="st6" d="M432.8,264c0,0,0.2,0.1,0.7,0.2c3.1,1.2,16.6,7.5,14.3,32.3c0,0-4-20.8-21-22
			C426.8,274.5,424.3,266.3,432.8,264z"/>
		<path class="st6" d="M428.4,283.8c0,0,0.2,0.1,0.7,0.2c3.1,1.2,16.6,7.5,14.3,32.3c0,0-4-20.8-21-22
			C422.4,294.3,419.9,286.1,428.4,283.8z"/>
		<path class="st6" d="M384.6,280.2c0,0,0.2,0.1,0.7,0.2c3.1,1.2,16.6,7.5,14.3,32.3c0,0-4-20.8-21-22
			C378.6,290.7,376.1,282.5,384.6,280.2z"/>
		<path class="st6" d="M347.6,296.5c0,0,0.2,0.1,0.7,0.2c3.1,1.2,16.6,7.5,14.3,32.3c0,0-4-20.8-21-22
			C341.6,307,339.1,298.8,347.6,296.5z"/>
		<path class="st6" d="M332.7,327.7c0,0,0.2,0.1,0.7,0.2c3.1,1.2,16.6,7.5,14.3,32.3c0,0-4-20.8-21-22
			C326.7,338.2,324.2,330.1,332.7,327.7z"/>
		<path class="st6" d="M314.4,296.5c0,0,0.2,0.1,0.7,0.2c3.1,1.2,16.6,7.5,14.3,32.3c0,0-4-20.8-21-22
			C308.4,307,305.9,298.8,314.4,296.5z"/>
		<path class="st6" d="M121.3,267.5c0,0-0.2,0.1-0.7,0.2c-3.1,1.2-16.6,7.5-14.3,32.3c0,0,4-20.8,21-22
			C127.3,278,129.8,269.8,121.3,267.5z"/>
		<path class="st6" d="M152.7,264c0,0-0.2,0.1-0.7,0.2c-3.1,1.2-16.6,7.5-14.3,32.3c0,0,4-20.8,21-22
			C158.7,274.5,161.2,266.3,152.7,264z"/>
		<path class="st6" d="M157,283.8c0,0-0.2,0.1-0.7,0.2c-3.1,1.2-16.6,7.5-14.3,32.3c0,0,4-20.8,21-22
			C163,294.3,165.5,286.1,157,283.8z"/>
		<path class="st6" d="M200.8,280.2c0,0-0.2,0.1-0.7,0.2c-3.1,1.2-16.6,7.5-14.3,32.3c0,0,4-20.8,21-22
			C206.8,290.7,209.3,282.5,200.8,280.2z"/>
		<path class="st6" d="M237.8,296.5c0,0-0.2,0.1-0.7,0.2c-3.1,1.2-16.6,7.5-14.3,32.3c0,0,4-20.8,21-22
			C243.8,307,246.3,298.8,237.8,296.5z"/>
		<path class="st6" d="M252.7,327.7c0,0-0.2,0.1-0.7,0.2c-3.1,1.2-16.6,7.5-14.3,32.3c0,0,4-20.8,21-22
			C258.7,338.2,261.2,330.1,252.7,327.7z"/>
		<path class="st6" d="M271,296.5c0,0-0.2,0.1-0.7,0.2c-3.1,1.2-16.6,7.5-14.3,32.3c0,0,4-20.8,21-22C277,307,279.5,298.8,271,296.5
			z"/>
		<path class="st6" d="M415.2,356c0,0,0.2,0.1,0.7,0.2c3.1,1.2,16.6,7.5,14.3,32.3c0,0-4-20.8-21-22
			C409.2,366.5,406.7,358.3,415.2,356z"/>
		<path class="st6" d="M380.6,330.2c0,0,0.2,0.1,0.7,0.2c3.1,1.2,16.6,7.5,14.3,32.3c0,0-4-20.8-21-22
			C374.6,340.8,372.1,332.6,380.6,330.2z"/>
		<path class="st6" d="M380.6,388.5c0,0,0.2,0.1,0.7,0.2c3.1,1.2,16.6,7.5,14.3,32.3c0,0-4-20.8-21-22
			C374.6,399,372.1,390.8,380.6,388.5z"/>
		<path class="st6" d="M344.8,395.7c0,0,0.2,0.1,0.7,0.2c3.1,1.2,16.6,7.5,14.3,32.3c0,0-4-20.8-21-22
			C338.8,406.2,336.3,398.1,344.8,395.7z"/>
		<path class="st6" d="M360.1,339.8c0,0,0.2,0.1,0.7,0.2c3.1,1.2,16.6,7.5,14.3,32.3c0,0-4-20.8-21-22
			C354.1,350.2,351.6,342.1,360.1,339.8z"/>
		<path class="st6" d="M404.4,421c0,0,0.2,0.1,0.7,0.2c3.1,1.2,16.6,7.5,14.3,32.3c0,0-4-20.8-21-22
			C398.4,431.5,395.9,423.3,404.4,421z"/>
		<path class="st6" d="M436.8,437.2c0,0,0.2,0.1,0.7,0.2c3.1,1.2,16.6,7.5,14.3,32.3c0,0-4-20.8-21-22
			C430.8,447.8,428.3,439.6,436.8,437.2z"/>
		<path class="st6" d="M459.4,427.2c0,0,0.2,0.1,0.7,0.2c3.1,1.2,16.6,7.5,14.3,32.3c0,0-4-20.8-21-22
			C453.4,437.8,450.9,429.6,459.4,427.2z"/>
		<path class="st6" d="M422,402c0,0,0.2,0.1,0.7,0.2c3.1,1.2,16.6,7.5,14.3,32.3c0,0-4-20.8-21-22C416,412.5,413.5,404.3,422,402z"
			/>
		<path class="st6" d="M448.6,385.7c0,0,0.2,0.1,0.7,0.2c3.1,1.2,16.6,7.5,14.3,32.3c0,0-4-20.8-21-22
			C442.6,396.2,440.1,388.1,448.6,385.7z"/>
		<path class="st6" d="M439.2,346.5c0,0,0.2,0.1,0.7,0.2c3.1,1.2,16.6,7.5,14.3,32.3c0,0-4-20.8-21-22
			C433.2,357,430.7,348.8,439.2,346.5z"/>
		<path class="st6" d="M469.2,320c0,0,0.2,0.1,0.7,0.2c3.1,1.2,16.6,7.5,14.3,32.3c0,0-4-20.8-21-22
			C463.2,330.5,460.7,322.4,469.2,320z"/>
		<path class="st6" d="M484.9,395.7c0,0,0.2,0.1,0.7,0.2c3.1,1.2,16.6,7.5,14.3,32.3c0,0-4-20.8-21-22
			C478.9,406.2,476.4,398.1,484.9,395.7z"/>
		<path class="st6" d="M483.2,427.2c0,0,0.2,0.1,0.7,0.2c3.1,1.2,16.6,7.5,14.3,32.3c0,0-4-20.8-21-22
			C477.2,437.8,474.7,429.6,483.2,427.2z"/>
		<path class="st6" d="M463.3,356c0,0,0.2,0.1,0.7,0.2c3.1,1.2,16.6,7.5,14.3,32.3c0,0-4-20.8-21-22
			C457.3,366.5,454.8,358.3,463.3,356z"/>
		<path class="st6" d="M442.5,320c0,0,0.2,0.1,0.7,0.2c3.1,1.2,16.6,7.5,14.3,32.3c0,0-4-20.8-21-22
			C436.5,330.5,434,322.4,442.5,320z"/>
		<path class="st6" d="M484.9,356c0,0,0.2,0.1,0.7,0.2c3.1,1.2,16.6,7.5,14.3,32.3c0,0-4-20.8-21-22
			C478.9,366.5,476.4,358.3,484.9,356z"/>
		<path class="st6" d="M393.2,360.8c0,0,0.2,0.1,0.6,0.3c2.8,1.8,14.6,10.9,7.1,34.6c0,0,0.6-21.2-15.8-26
			C385.1,369.7,384.4,361.2,393.2,360.8z"/>
		<path class="st6" d="M373.6,418.2c0,0,0.2,0.1,0.6,0.3c3,1.5,15.5,9.5,10.2,33.8c0,0-1.4-21.2-18.1-24.4
			C366.4,427.9,364.9,419.5,373.6,418.2z"/>
		<path class="st6" d="M371.9,459.8c0,0,0.2,0.1,0.6,0.3c3,1.5,15.5,9.5,10.2,33.8c0,0-1.4-21.2-18.1-24.4
			C364.6,469.4,363.2,461,371.9,459.8z"/>
		<path class="st6" d="M393.5,465c0,0,0.2,0.1,0.6,0.3c3,1.5,15.5,9.5,10.2,33.8c0,0-1.4-21.2-18.1-24.4
			C386.2,474.6,384.7,466.2,393.5,465z"/>
		<path class="st6" d="M424,465c0,0,0.2,0.1,0.6,0.3c3,1.5,15.5,9.5,10.2,33.8c0,0-1.4-21.2-18.1-24.4
			C416.8,474.6,415.3,466.2,424,465z"/>
		<path class="st6" d="M434.8,491c0,0,0.2,0.1,0.6,0.3c3,1.5,15.5,9.5,10.2,33.8c0,0-1.4-21.2-18.1-24.4
			C427.6,500.6,426.1,492.2,434.8,491z"/>
		<path class="st6" d="M461.5,476.9c0,0,0.2,0.1,0.6,0.3c3,1.5,15.5,9.5,10.2,33.8c0,0-1.4-21.2-18.1-24.4
			C454.2,486.6,452.8,478.2,461.5,476.9z"/>
		<path class="st6" d="M325,450.9c0,0,0.2,0.2,0.5,0.5c2.3,2.5,11.3,14.2-1.9,35.3c0,0,5.9-20.4-8.7-29.1
			C314.9,457.5,316.4,449.1,325,450.9z"/>
		<path class="st6" d="M336.9,490.3c0,0,0.2,0.2,0.5,0.5c2.3,2.5,11.3,14.2-1.9,35.3c0,0,5.9-20.4-8.7-29.1
			C326.8,496.9,328.2,488.5,336.9,490.3z"/>
		<path class="st6" d="M355.8,464.3c0,0,0.2,0.2,0.5,0.5c2.3,2.5,11.3,14.2-1.9,35.3c0,0,5.9-20.4-8.7-29.1
			C345.6,470.9,347.1,462.5,355.8,464.3z"/>
		<path class="st6" d="M370.7,493.3c0,0,0.2,0.2,0.5,0.5c2.3,2.5,11.3,14.2-1.9,35.3c0,0,5.9-20.4-8.7-29.1
			C360.5,499.9,362,491.5,370.7,493.3z"/>
		<path class="st6" d="M388.4,525.3c0,0,0.2,0.2,0.5,0.5c2.3,2.5,11.3,14.2-1.9,35.3c0,0,5.9-20.4-8.7-29.1
			C378.3,531.9,379.7,523.5,388.4,525.3z"/>
		<path class="st6" d="M363.6,543.3c0,0,0.2,0.2,0.5,0.5c2.3,2.5,11.3,14.2-1.9,35.3c0,0,5.9-20.4-8.7-29.1
			C353.5,550,355,541.5,363.6,543.3z"/>
		<path class="st6" d="M321.1,552c0,0,0.2,0.2,0.5,0.5c2.3,2.5,11.3,14.2-1.9,35.3c0,0,5.9-20.4-8.7-29.1
			C311,558.6,312.5,550.2,321.1,552z"/>
		<path class="st6" d="M336.9,534c0,0,0.2,0.2,0.5,0.5c2.3,2.5,11.3,14.2-1.9,35.3c0,0,5.9-20.4-8.7-29.1
			C326.8,540.6,328.2,532.2,336.9,534z"/>
		<path class="st6" d="M353.7,567c0,0,0.1,0.2,0.3,0.6c1.2,3.1,5.3,17.4-14.8,32.1c0,0,13-16.8,2.7-30.3
			C341.9,569.4,346.4,562.1,353.7,567z"/>
		<path class="st6" d="M366.6,594.8c0,0,0.1,0.2,0.3,0.6c1.2,3.1,5.3,17.4-14.8,32.1c0,0,13-16.8,2.7-30.3
			C354.7,597.2,359.2,589.9,366.6,594.8z"/>
		<path class="st6" d="M330.3,594.8c0,0,0.1,0.2,0.3,0.6c1.2,3.1,5.3,17.4-14.8,32.1c0,0,13-16.8,2.7-30.3
			C318.4,597.2,322.9,589.9,330.3,594.8z"/>
		<path class="st6" d="M313.1,594.8c0,0,0.1,0.2,0.3,0.6c1.2,3.1,5.3,17.4-14.8,32.1c0,0,13-16.8,2.7-30.3
			C301.2,597.2,305.7,589.9,313.1,594.8z"/>
		<path class="st6" d="M321.1,501.5c0,0,0.2,0.2,0.5,0.5c2.3,2.5,11.3,14.2-1.9,35.3c0,0,5.9-20.4-8.7-29.1
			C311,508.1,312.5,499.7,321.1,501.5z"/>
		<path class="st6" d="M359.2,511.3c0,0,0.2,0.2,0.5,0.5c2.3,2.5,11.3,14.2-1.9,35.3c0,0,5.9-20.4-8.7-29.1
			C349.1,517.9,350.5,509.5,359.2,511.3z"/>
		<path class="st6" d="M418.9,511.3c0,0,0.2,0.2,0.5,0.5c2.3,2.5,11.3,14.2-1.9,35.3c0,0,5.9-20.4-8.7-29.1
			C408.8,517.9,410.3,509.5,418.9,511.3z"/>
		<path class="st6" d="M438.4,540.5c0,0,0.2,0.2,0.5,0.5c2.3,2.5,11.3,14.2-1.9,35.3c0,0,5.9-20.4-8.7-29.1
			C428.3,547.2,429.8,538.8,438.4,540.5z"/>
		<path class="st6" d="M411.1,555.2c0,0,0.2,0.2,0.5,0.5c2.3,2.5,11.3,14.2-1.9,35.3c0,0,5.9-20.4-8.7-29.1
			C401,561.8,402.4,553.4,411.1,555.2z"/>
		<path class="st6" d="M380.5,581.8c0,0,0.2,0.2,0.5,0.5c2.3,2.5,11.3,14.2-1.9,35.3c0,0,5.9-20.4-8.7-29.1
			C370.4,588.4,371.9,580,380.5,581.8z"/>
		<path class="st6" d="M325,400.5c0,0,0.2,0.2,0.5,0.5c2.3,2.5,11.3,14.2-1.9,35.3c0,0,5.9-20.4-8.7-29.1
			C314.9,407.1,316.4,398.7,325,400.5z"/>
		<path class="st6" d="M313.3,352.8c0,0,0.2,0.2,0.5,0.5c2.3,2.5,11.3,14.2-1.9,35.3c0,0,5.9-20.4-8.7-29.1
			C303.2,359.4,304.6,351,313.3,352.8z"/>
		<path class="st6" d="M344.7,360.5c0,0,0.2,0.2,0.5,0.5c2.3,2.5,11.3,14.2-1.9,35.3c0,0,5.9-20.4-8.7-29.1
			C334.6,367.1,336.1,358.7,344.7,360.5z"/>
	</g>
	<path class="st6" d="M294.4,378.5c0,0,0.2,0.2,0.5,0.5c2.3,2.5,11.3,14.2-1.9,35.3c0,0,5.9-20.4-8.7-29.1
		C284.3,385.1,285.7,376.7,294.4,378.5z"/>
	<path class="st6" d="M308.8,419.5c0,0,0.2,0.2,0.5,0.5c2.3,2.5,11.3,14.2-1.9,35.3c0,0,5.9-20.4-8.7-29.1
		C298.7,426.1,300.2,417.7,308.8,419.5z"/>
	<path class="st6" d="M285.8,425.7c0,0,0.2,0.2,0.5,0.5c2.3,2.5,11.3,14.2-1.9,35.3c0,0,5.9-20.4-8.7-29.1
		C275.7,432.4,277.2,424,285.8,425.7z"/>
	<path class="st6" d="M308.8,464.3c0,0,0.2,0.2,0.5,0.5c2.3,2.5,11.3,14.2-1.9,35.3c0,0,5.9-20.4-8.7-29.1
		C298.7,470.9,300.2,462.5,308.8,464.3z"/>
	<path class="st6" d="M291.4,472.3c0,0,0.2,0.2,0.5,0.5c2.3,2.5,11.3,14.2-1.9,35.3c0,0,5.9-20.4-8.7-29.1
		C281.3,478.9,282.8,470.5,291.4,472.3z"/>
	<path class="st6" d="M305.4,519.5c0,0,0.2,0.2,0.5,0.5c2.3,2.5,11.3,14.2-1.9,35.3c0,0,5.9-20.4-8.7-29.1
		C295.3,526.1,296.8,517.7,305.4,519.5z"/>
	<path class="st6" d="M293.7,555.2c0,0,0.2,0.2,0.5,0.5c2.3,2.5,11.3,14.2-1.9,35.3c0,0,5.9-20.4-8.7-29.1
		C283.5,561.8,285,553.4,293.7,555.2z"/>
</g>
<g id="Calque_7">
	<g>
		<path class="st8" d="M423.8,185.9c0,0,0.1,0,0.4,0.1c1.9,0.7,9.9,4.5,8.6,19.4c0,0-2.4-12.5-12.6-13.2
			C420.2,192.2,418.7,187.3,423.8,185.9z"/>
		<path class="st8" d="M407.7,200.1c0,0,0.1,0,0.4,0.1c2,0.5,10.4,3.5,10.6,18.4c0,0-3.7-12.2-13.9-11.8
			C404.7,206.8,402.7,202,407.7,200.1z"/>
		<path class="st8" d="M429.1,207.5c0,0,0.1,0,0.4,0.1c1.9,0.7,9.9,4.5,8.6,19.4c0,0-2.4-12.5-12.6-13.2
			C425.5,213.8,424,208.9,429.1,207.5z"/>
		<path class="st8" d="M414.4,221.7c0,0,0.1,0.1,0.3,0.2c1.6,1.2,8.4,6.9,3.3,20.9c0,0,0.9-12.7-8.8-16
			C409.3,226.8,409.2,221.7,414.4,221.7z"/>
		<path class="st8" d="M397.1,215.9c0,0,0.1,0.1,0.3,0.2c1.6,1.2,8.4,6.9,3.3,20.9c0,0,0.9-12.7-8.8-16
			C392,221.1,391.8,216,397.1,215.9z"/>
		<path class="st8" d="M433.5,230.2c0,0,0.1,0,0.4,0.1c1.9,0.7,9.9,4.5,8.6,19.4c0,0-2.4-12.5-12.6-13.2
			C429.9,236.5,428.4,231.6,433.5,230.2z"/>
		<path class="st8" d="M401.1,241.5c0,0,0.1,0,0.4,0.1c1.9,0.7,9.9,4.5,8.6,19.4c0,0-2.4-12.5-12.6-13.2
			C397.5,247.8,396,242.9,401.1,241.5z"/>
		<path class="st8" d="M382.4,222.5c0,0,0.1,0,0.4,0.1c1.9,0.7,9.9,4.5,8.6,19.4c0,0-2.4-12.5-12.6-13.2
			C378.8,228.8,377.3,223.9,382.4,222.5z"/>
		<path class="st8" d="M378.9,197.8c0,0,0.1,0,0.4,0.1c1.9,0.7,9.9,4.5,8.6,19.4c0,0-2.4-12.5-12.6-13.2
			C375.3,204.1,373.8,199.2,378.9,197.8z"/>
		<path class="st8" d="M388.9,189c0,0,0.1,0,0.4,0.1c1.9,0.7,9.9,4.5,8.6,19.4c0,0-2.4-12.5-12.6-13.2
			C385.3,195.4,383.8,190.4,388.9,189z"/>
		<path class="st8" d="M403.3,172.6c0,0,0.1,0.1,0.3,0.3c1.5,1.3,7.7,7.8,1.2,21.2c0,0,2.2-12.5-7.1-16.8
			C397.7,177.2,398,172.1,403.3,172.6z"/>
		<path class="st8" d="M390.7,150.3c0,0,0.1,0,0.4,0.1c1.9,0.7,9.9,4.5,8.6,19.4c0,0-2.4-12.5-12.6-13.2
			C387.1,156.6,385.6,151.7,390.7,150.3z"/>
		<path class="st8" d="M362.8,178.2c0,0,0.1,0,0.4,0c2,0,10.9,0.9,14.7,15.3c0,0-6.5-10.9-16.3-8.1
			C361.6,185.4,358.5,181.3,362.8,178.2z"/>
		<path class="st8" d="M371.8,166c0,0,0.1,0,0.4,0c2,0,10.9,0.9,14.7,15.3c0,0-6.5-10.9-16.3-8.1C370.6,173.1,367.5,169,371.8,166z"
			/>
		<path class="st8" d="M365.5,141.2c0,0,0.1,0,0.4,0c2,0,10.9,0.9,14.7,15.3c0,0-6.5-10.9-16.3-8.1
			C364.3,148.3,361.2,144.2,365.5,141.2z"/>
		<path class="st8" d="M353.1,192.6c0,0,0.1,0,0.4-0.1c2-0.3,10.9-0.9,16.9,12.8c0,0-8.2-9.8-17.4-5.4
			C353.1,199.8,349.4,196.3,353.1,192.6z"/>
		<path class="st8" d="M343.7,140.4c0,0,0.1,0,0.4,0c2,0,10.9,1,14.5,15.5c0,0-6.4-11-16.2-8.3C342.4,147.6,339.4,143.5,343.7,140.4
			z"/>
		<path class="st8" d="M317.1,128.6c0,0,0.1-0.1,0.4-0.2c1.8-0.9,10.1-4.1,20,7c0,0-10.7-6.8-18.3,0.1
			C319.2,135.5,314.6,133.3,317.1,128.6z"/>
		<path class="st8" d="M295,126.9c0,0,0.1,0,0.4-0.1c2-0.3,10.9-0.7,16.7,13c0,0-8-9.9-17.3-5.7C294.8,134.2,291.2,130.6,295,126.9z
			"/>
		<path class="st8" d="M301.2,151.1c0,0,0.1,0,0.4,0c2,0.3,10.7,2.2,12.6,17c0,0-5.1-11.7-15.2-10.1
			C299.1,158,296.6,153.6,301.2,151.1z"/>
		<path class="st8" d="M298.6,177.3c0,0,0.1,0,0.4,0c2,0.1,10.8,1.5,13.8,16.1c0,0-5.9-11.3-15.9-9
			C297,184.4,294.1,180.1,298.6,177.3z"/>
		<path class="st8" d="M338.9,175c0,0,0.1,0,0.4,0.1c1.9,0.7,9.9,4.5,8.6,19.4c0,0-2.4-12.5-12.6-13.2
			C335.3,181.3,333.8,176.4,338.9,175z"/>
		<path class="st8" d="M326.9,150.9c0,0,0.1,0,0.4-0.1c2-0.2,10.9-0.2,16.1,13.8c0,0-7.6-10.2-17.1-6.5
			C326.3,158.1,322.9,154.3,326.9,150.9z"/>
		<path class="st8" d="M320.5,175c0,0,0.1,0,0.4,0.1c1.9,0.7,9.9,4.5,8.6,19.4c0,0-2.4-12.5-12.6-13.2
			C316.9,181.3,315.4,176.4,320.5,175z"/>
		<path class="st8" d="M317.9,197.8c0,0,0.1,0,0.4,0.1c1.9,0.7,9.9,4.5,8.6,19.4c0,0-2.4-12.5-12.6-13.2
			C314.3,204.1,312.7,199.2,317.9,197.8z"/>
		<path class="st8" d="M300.7,205.4c0,0,0.1,0,0.4,0c2,0.1,10.8,1.6,13.7,16.2c0,0-5.8-11.3-15.8-9.1
			C299,212.4,296.2,208.2,300.7,205.4z"/>
		<path class="st8" d="M310.7,224c0,0,0.1,0.1,0.3,0.2c1.6,1.2,8.3,7.2,2.8,21c0,0,1.2-12.7-8.4-16.2
			C305.4,229,305.4,223.9,310.7,224z"/>
		<path class="st8" d="M326,244.5c0,0,0.1,0,0.4,0.1c1.9,0.7,9.9,4.5,8.6,19.4c0,0-2.4-12.5-12.6-13.2
			C322.4,250.8,320.9,245.9,326,244.5z"/>
		<path class="st8" d="M346.8,249.8c0,0,0.1,0,0.4,0.1c1.9,0.7,9.9,4.5,8.6,19.4c0,0-2.4-12.5-12.6-13.2
			C343.2,256.1,341.7,251.2,346.8,249.8z"/>
		<path class="st8" d="M364,247.3c0,0,0.1,0,0.4,0.1c1.9,0.7,9.9,4.5,8.6,19.4c0,0-2.4-12.5-12.6-13.2
			C360.4,253.6,358.9,248.7,364,247.3z"/>
		<path class="st8" d="M379.9,240c0,0,0.1,0,0.4,0.1c1.9,0.7,9.9,4.5,8.6,19.4c0,0-2.4-12.5-12.6-13.2
			C376.3,246.3,374.8,241.4,379.9,240z"/>
		<path class="st8" d="M344.5,269.3c0,0,0.1,0,0.4,0.1c1.9,0.7,9.9,4.5,8.6,19.4c0,0-2.4-12.5-12.6-13.2
			C340.9,275.6,339.4,270.7,344.5,269.3z"/>
		<path class="st8" d="M320.9,270.3c0,0,0.1,0.1,0.3,0.3c1.4,1.5,6.8,8.5-1,21.2c0,0,3.5-12.2-5.3-17.5
			C314.8,274.3,315.7,269.2,320.9,270.3z"/>
	</g>
	<g>
		<path class="st8" d="M162.2,185.9c0,0-0.1,0-0.4,0.1c-1.9,0.7-9.9,4.5-8.6,19.4c0,0,2.4-12.5,12.6-13.2
			C165.8,192.2,167.3,187.3,162.2,185.9z"/>
		<path class="st8" d="M178.3,200.1c0,0-0.1,0-0.4,0.1c-2,0.5-10.4,3.5-10.6,18.4c0,0,3.7-12.2,13.9-11.8
			C181.2,206.8,183.2,202,178.3,200.1z"/>
		<path class="st8" d="M156.8,207.5c0,0-0.1,0-0.4,0.1c-1.9,0.7-9.9,4.5-8.6,19.4c0,0,2.4-12.5,12.6-13.2
			C160.4,213.8,161.9,208.9,156.8,207.5z"/>
		<path class="st8" d="M171.5,221.7c0,0-0.1,0.1-0.3,0.2c-1.6,1.2-8.4,6.9-3.3,20.9c0,0-0.9-12.7,8.8-16
			C176.6,226.8,176.8,221.7,171.5,221.7z"/>
		<path class="st8" d="M188.9,215.9c0,0-0.1,0.1-0.3,0.2c-1.6,1.2-8.4,6.9-3.3,20.9c0,0-0.9-12.7,8.8-16
			C194,221.1,194.1,216,188.9,215.9z"/>
		<path class="st8" d="M152.4,230.2c0,0-0.1,0-0.4,0.1c-1.9,0.7-9.9,4.5-8.6,19.4c0,0,2.4-12.5,12.6-13.2
			C156,236.5,157.5,231.6,152.4,230.2z"/>
		<path class="st8" d="M184.8,241.5c0,0-0.1,0-0.4,0.1c-1.9,0.7-9.9,4.5-8.6,19.4c0,0,2.4-12.5,12.6-13.2
			C188.4,247.8,189.9,242.9,184.8,241.5z"/>
		<path class="st8" d="M203.5,222.5c0,0-0.1,0-0.4,0.1c-1.9,0.7-9.9,4.5-8.6,19.4c0,0,2.4-12.5,12.6-13.2
			C207.1,228.8,208.6,223.9,203.5,222.5z"/>
		<path class="st8" d="M207,197.8c0,0-0.1,0-0.4,0.1c-1.9,0.7-9.9,4.5-8.6,19.4c0,0,2.4-12.5,12.6-13.2
			C210.6,204.1,212.1,199.2,207,197.8z"/>
		<path class="st8" d="M197,189c0,0-0.1,0-0.4,0.1c-1.9,0.7-9.9,4.5-8.6,19.4c0,0,2.4-12.5,12.6-13.2
			C200.6,195.4,202.1,190.4,197,189z"/>
		<path class="st8" d="M182.6,172.6c0,0-0.1,0.1-0.3,0.3c-1.5,1.3-7.7,7.8-1.2,21.2c0,0-2.2-12.5,7.1-16.8
			C188.2,177.2,187.9,172.1,182.6,172.6z"/>
		<path class="st8" d="M195.2,150.3c0,0-0.1,0-0.4,0.1c-1.9,0.7-9.9,4.5-8.6,19.4c0,0,2.4-12.5,12.6-13.2
			C198.8,156.6,200.3,151.7,195.2,150.3z"/>
		<path class="st8" d="M223.1,178.2c0,0-0.1,0-0.4,0c-2,0-10.9,0.9-14.7,15.3c0,0,6.5-10.9,16.3-8.1
			C224.3,185.4,227.4,181.3,223.1,178.2z"/>
		<path class="st8" d="M214.1,166c0,0-0.1,0-0.4,0c-2,0-10.9,0.9-14.7,15.3c0,0,6.5-10.9,16.3-8.1C215.3,173.1,218.4,169,214.1,166z
			"/>
		<path class="st8" d="M220.4,141.2c0,0-0.1,0-0.4,0c-2,0-10.9,0.9-14.7,15.3c0,0,6.5-10.9,16.3-8.1
			C221.6,148.3,224.7,144.2,220.4,141.2z"/>
		<path class="st8" d="M232.8,192.6c0,0-0.1,0-0.4-0.1c-2-0.3-10.9-0.9-16.9,12.8c0,0,8.2-9.8,17.4-5.4
			C232.9,199.8,236.6,196.3,232.8,192.6z"/>
		<path class="st8" d="M242.2,140.4c0,0-0.1,0-0.4,0c-2,0-10.9,1-14.5,15.5c0,0,6.4-11,16.2-8.3
			C243.5,147.6,246.5,143.5,242.2,140.4z"/>
		<path class="st8" d="M268.8,128.6c0,0-0.1-0.1-0.4-0.2c-1.8-0.9-10.1-4.1-20,7c0,0,10.7-6.8,18.3,0.1
			C266.7,135.5,271.3,133.3,268.8,128.6z"/>
		<path class="st8" d="M290.9,126.9c0,0-0.1,0-0.4-0.1c-2-0.3-10.9-0.7-16.7,13c0,0,8-9.9,17.3-5.7
			C291.1,134.2,294.7,130.6,290.9,126.9z"/>
		<path class="st8" d="M284.7,151.1c0,0-0.1,0-0.4,0c-2,0.3-10.7,2.2-12.6,17c0,0,5.1-11.7,15.2-10.1
			C286.8,158,289.3,153.6,284.7,151.1z"/>
		<path class="st8" d="M287.3,177.3c0,0-0.1,0-0.4,0c-2,0.1-10.8,1.5-13.8,16.1c0,0,5.9-11.3,15.9-9
			C288.9,184.4,291.8,180.1,287.3,177.3z"/>
		<path class="st8" d="M247,175c0,0-0.1,0-0.4,0.1c-1.9,0.7-9.9,4.5-8.6,19.4c0,0,2.4-12.5,12.6-13.2
			C250.6,181.3,252.1,176.4,247,175z"/>
		<path class="st8" d="M259.1,150.9c0,0-0.1,0-0.4-0.1c-2-0.2-10.9-0.2-16.1,13.8c0,0,7.6-10.2,17.1-6.5
			C259.6,158.1,263.1,154.3,259.1,150.9z"/>
		<path class="st8" d="M265.4,175c0,0-0.1,0-0.4,0.1c-1.9,0.7-9.9,4.5-8.6,19.4c0,0,2.4-12.5,12.6-13.2
			C269,181.3,270.5,176.4,265.4,175z"/>
		<path class="st8" d="M268.1,197.8c0,0-0.1,0-0.4,0.1c-1.9,0.7-9.9,4.5-8.6,19.4c0,0,2.4-12.5,12.6-13.2
			C271.7,204.1,273.2,199.2,268.1,197.8z"/>
		<path class="st8" d="M285.2,205.4c0,0-0.1,0-0.4,0c-2,0.1-10.8,1.6-13.7,16.2c0,0,5.8-11.3,15.8-9.1
			C286.9,212.4,289.7,208.2,285.2,205.4z"/>
		<path class="st8" d="M275.3,224c0,0-0.1,0.1-0.3,0.2c-1.6,1.2-8.3,7.2-2.8,21c0,0-1.2-12.7,8.4-16.2
			C280.5,229,280.6,223.9,275.3,224z"/>
		<path class="st8" d="M259.9,244.5c0,0-0.1,0-0.4,0.1c-1.9,0.7-9.9,4.5-8.6,19.4c0,0,2.4-12.5,12.6-13.2
			C263.5,250.8,265,245.9,259.9,244.5z"/>
		<path class="st8" d="M239.1,249.8c0,0-0.1,0-0.4,0.1c-1.9,0.7-9.9,4.5-8.6,19.4c0,0,2.4-12.5,12.6-13.2
			C242.7,256.1,244.2,251.2,239.1,249.8z"/>
		<path class="st8" d="M221.9,247.3c0,0-0.1,0-0.4,0.1c-1.9,0.7-9.9,4.5-8.6,19.4c0,0,2.4-12.5,12.6-13.2
			C225.5,253.6,227,248.7,221.9,247.3z"/>
		<path class="st8" d="M206,240c0,0-0.1,0-0.4,0.1c-1.9,0.7-9.9,4.5-8.6,19.4c0,0,2.4-12.5,12.6-13.2
			C209.6,246.3,211.1,241.4,206,240z"/>
		<path class="st8" d="M241.4,269.3c0,0-0.1,0-0.4,0.1c-1.9,0.7-9.9,4.5-8.6,19.4c0,0,2.4-12.5,12.6-13.2
			C245,275.6,246.5,270.7,241.4,269.3z"/>
		<path class="st8" d="M265,270.3c0,0-0.1,0.1-0.3,0.3c-1.4,1.5-6.8,8.5,1,21.2c0,0-3.5-12.2,5.3-17.5
			C271.1,274.3,270.2,269.2,265,270.3z"/>
	</g>
</g>
<g id="Calque_8">
	<g>
		<path class="st8" d="M314.8,217.4c0,0,0-0.1,0.1-0.4c0.5-2,3.4-10.4,18.3-10.8c0,0-12.1,3.8-11.7,14
			C321.5,220.3,316.8,222.3,314.8,217.4z"/>
		<path class="st8" d="M328.4,207.3c0,0,0.1-0.1,0.2-0.3c1.2-1.6,7.4-8.1,21.1-2.2c0,0-12.6-1.6-16.5,7.9
			C333.3,212.7,328.2,212.6,328.4,207.3z"/>
		<path class="st8" d="M340.9,201.9c0,0,0.1-0.1,0.4-0.2c1.8-0.8,10.3-3.7,19.7,7.9c0,0-10.4-7.3-18.2-0.7
			C342.7,208.9,338.2,206.5,340.9,201.9z"/>
		<path class="st8" d="M359.1,203c0,0,0.1,0,0.4,0.1c2,0.4,10.5,3.1,11.3,17.9c0,0-4.2-12-14.4-11.3
			C356.4,209.8,354.2,205.1,359.1,203z"/>
		<path class="st8" d="M373.9,211.8c0,0,0.1,0.1,0.3,0.3c1.5,1.4,7.5,7.9,0.7,21.2c0,0,2.5-12.5-6.7-17
			C368.2,216.3,368.7,211.2,373.9,211.8z"/>
		<path class="st8" d="M363.3,251.2c0,0,0.1,0,0.4-0.1c2-0.4,10.6-2.8,11.8-17.6c0,0-4.5,11.9-14.7,10.9
			C360.8,244.4,358.5,249,363.3,251.2z"/>
		<path class="st8" d="M345.1,253.5c0,0,0.1,0.1,0.4,0.2c1.8,1,9.9,4.6,20.3-6.1c0,0-11,6.4-18.2-0.9
			C347.5,246.6,342.8,248.7,345.1,253.5z"/>
		<path class="st8" d="M329.4,244.1c0,0,0.1,0.1,0.2,0.4c0.9,1.8,5.5,9.4,20.1,6.7c0,0-12.7-1.2-14.4-11.3
			C335.3,239.9,330.3,238.9,329.4,244.1z"/>
		<path class="st8" d="M318.6,232.4c0,0,0,0.1,0,0.4c0.3,2,2.3,10.7,17.1,12.5c0,0-11.7-5-10.2-15.1
			C325.6,230.3,321.1,227.8,318.6,232.4z"/>
	</g>
	<g>
		<path class="st8" d="M271.1,217.4c0,0,0-0.1-0.1-0.4c-0.5-2-3.4-10.4-18.3-10.8c0,0,12.1,3.8,11.7,14
			C264.4,220.3,269.1,222.3,271.1,217.4z"/>
		<path class="st8" d="M257.5,207.3c0,0-0.1-0.1-0.2-0.3c-1.2-1.6-7.4-8.1-21.1-2.2c0,0,12.6-1.6,16.5,7.9
			C252.6,212.7,257.7,212.6,257.5,207.3z"/>
		<path class="st8" d="M245,201.9c0,0-0.1-0.1-0.4-0.2c-1.8-0.8-10.3-3.7-19.7,7.9c0,0,10.4-7.3,18.2-0.7
			C243.2,208.9,247.7,206.5,245,201.9z"/>
		<path class="st8" d="M226.8,203c0,0-0.1,0-0.4,0.1c-2,0.4-10.5,3.1-11.3,17.9c0,0,4.2-12,14.4-11.3
			C229.5,209.8,231.7,205.1,226.8,203z"/>
		<path class="st8" d="M212,211.8c0,0-0.1,0.1-0.3,0.3c-1.5,1.4-7.5,7.9-0.7,21.2c0,0-2.5-12.5,6.7-17
			C217.7,216.3,217.2,211.2,212,211.8z"/>
		<path class="st8" d="M222.6,251.2c0,0-0.1,0-0.4-0.1c-2-0.4-10.6-2.8-11.8-17.6c0,0,4.5,11.9,14.7,10.9
			C225.1,244.4,227.4,249,222.6,251.2z"/>
		<path class="st8" d="M240.8,253.5c0,0-0.1,0.1-0.4,0.2c-1.8,1-9.9,4.6-20.3-6.1c0,0,11,6.4,18.2-0.9
			C238.4,246.6,243.1,248.7,240.8,253.5z"/>
		<path class="st8" d="M256.5,244.1c0,0-0.1,0.1-0.2,0.4c-0.9,1.8-5.5,9.4-20.1,6.7c0,0,12.7-1.2,14.4-11.3
			C250.6,239.9,255.6,238.9,256.5,244.1z"/>
		<path class="st8" d="M267.3,232.4c0,0,0,0.1,0,0.4c-0.3,2-2.3,10.7-17.1,12.5c0,0,11.7-5,10.2-15.1
			C260.3,230.3,264.8,227.8,267.3,232.4z"/>
	</g>
</g>
<g id="Calque_9">
	<g>
		<path class="st8" d="M297.4,227.7c0,0,0.1,0,0.4,0.1c2,0.5,10.4,3.5,10.6,18.4c0,0-3.7-12.2-13.9-11.8
			C294.4,234.3,292.4,229.6,297.4,227.7z"/>
		<path class="st8" d="M311.9,240.7c0,0,0.1,0.1,0.4,0.2c1.8,0.9,9.4,5.6,6.5,20.2c0,0-1-12.7-11.1-14.5
			C307.6,246.5,306.6,241.5,311.9,240.7z"/>
		<path class="st8" d="M323.5,259.7c0,0,0,0.1,0.1,0.4c0.3,2,0.8,10.9-12.9,16.8c0,0,9.8-8.1,5.6-17.4
			C316.3,259.6,319.8,255.9,323.5,259.7z"/>
		<path class="st8" d="M312,269.9c0,0-0.1,0.1-0.4,0.2c-1.8,0.9-9.3,5.8-6,20.3c0,0,0.7-12.7,10.8-14.7
			C316.4,275.7,317.3,270.7,312,269.9z"/>
	</g>
	<g>
		<path class="st8" d="M293.3,227.7c0,0-0.1,0-0.4,0.1c-2,0.5-10.4,3.5-10.6,18.4c0,0,3.7-12.2,13.9-11.8
			C296.3,234.3,298.3,229.6,293.3,227.7z"/>
		<path class="st8" d="M278.9,240.7c0,0-0.1,0.1-0.4,0.2c-1.8,0.9-9.4,5.6-6.5,20.2c0,0,1-12.7,11.1-14.5
			C283.1,246.5,284.1,241.5,278.9,240.7z"/>
		<path class="st8" d="M267.2,259.7c0,0,0,0.1-0.1,0.4c-0.3,2-0.8,10.9,12.9,16.8c0,0-9.8-8.1-5.6-17.4
			C274.5,259.6,270.9,255.9,267.2,259.7z"/>
		<path class="st8" d="M278.7,269.9c0,0,0.1,0.1,0.4,0.2c1.8,0.9,9.3,5.8,6,20.3c0,0-0.7-12.7-10.8-14.7
			C274.3,275.7,273.5,270.7,278.7,269.9z"/>
	</g>
</g>
</svg>
